<svg width="41" height="44" viewBox="0 0 41 44" fill="none" xmlns="http://www.w3.org/2000/svg">
<path d="M37.584 18.6817H32.2857C27.9407 18.6817 24.4023 15.1434 24.4023 10.7984V5.50002C24.4023 4.49169 23.5773 3.66669 22.569 3.66669H14.7957C9.14898 3.66669 4.58398 7.33335 4.58398 13.8784V30.1217C4.58398 36.6667 9.14898 40.3334 14.7957 40.3334H29.2057C34.8523 40.3334 39.4173 36.6667 39.4173 30.1217V20.515C39.4173 19.5067 38.5923 18.6817 37.584 18.6817ZM22.514 28.93L18.8473 32.5967C18.719 32.725 18.554 32.835 18.389 32.89C18.224 32.9634 18.059 33 17.8757 33C17.6923 33 17.5273 32.9634 17.3623 32.89C17.2157 32.835 17.069 32.725 16.959 32.615C16.9407 32.5967 16.9223 32.5967 16.9223 32.5784L13.2557 28.9117C12.724 28.38 12.724 27.5 13.2557 26.9684C13.7873 26.4367 14.6673 26.4367 15.199 26.9684L16.5007 28.3067V20.625C16.5007 19.8734 17.124 19.25 17.8757 19.25C18.6273 19.25 19.2507 19.8734 19.2507 20.625V28.3067L20.5707 26.9867C21.1023 26.455 21.9823 26.455 22.514 26.9867C23.0457 27.5184 23.0457 28.3984 22.514 28.93Z" fill="#27AAE1"/>
<path d="M31.9557 16.1517C33.6974 16.17 36.1174 16.17 38.1891 16.17C39.2341 16.17 39.7841 14.9417 39.0507 14.2084C36.4107 11.55 31.6807 6.76503 28.9674 4.05169C28.2157 3.30003 26.9141 3.81336 26.9141 4.85836V11.2567C26.9141 13.9334 29.1874 16.1517 31.9557 16.1517Z" fill="#27AAE1"/>
</svg>
