<svg width="32" height="32" viewBox="0 0 32 32" fill="none" xmlns="http://www.w3.org/2000/svg">
<path d="M27.3335 13.5865H23.4802C20.3202 13.5865 17.7468 11.0132 17.7468 7.85317V3.99984C17.7468 3.2665 17.1468 2.6665 16.4135 2.6665H10.7602C6.6535 2.6665 3.3335 5.33317 3.3335 10.0932V21.9065C3.3335 26.6665 6.6535 29.3332 10.7602 29.3332H21.2402C25.3468 29.3332 28.6668 26.6665 28.6668 21.9065V14.9198C28.6668 14.1865 28.0668 13.5865 27.3335 13.5865ZM16.3735 21.0398L13.7068 23.7065C13.6135 23.7998 13.4935 23.8798 13.3735 23.9198C13.2535 23.9732 13.1335 23.9998 13.0002 23.9998C12.8668 23.9998 12.7468 23.9732 12.6268 23.9198C12.5202 23.8798 12.4135 23.7998 12.3335 23.7198C12.3202 23.7065 12.3068 23.7065 12.3068 23.6932L9.64016 21.0265C9.2535 20.6398 9.2535 19.9998 9.64016 19.6132C10.0268 19.2265 10.6668 19.2265 11.0535 19.6132L12.0002 20.5865V14.9998C12.0002 14.4532 12.4535 13.9998 13.0002 13.9998C13.5468 13.9998 14.0002 14.4532 14.0002 14.9998V20.5865L14.9602 19.6265C15.3468 19.2398 15.9868 19.2398 16.3735 19.6265C16.7602 20.0132 16.7602 20.6532 16.3735 21.0398Z" fill="#143881"/>
<path d="M23.2399 11.7468C24.5066 11.7602 26.2666 11.7602 27.7732 11.7602C28.5332 11.7602 28.9332 10.8668 28.3999 10.3335C26.4799 8.40015 23.0399 4.92015 21.0666 2.94682C20.5199 2.40015 19.5732 2.77349 19.5732 3.53349V8.18682C19.5732 10.1335 21.2266 11.7468 23.2399 11.7468Z" fill="#143881"/>
</svg>
