<svg width="21" height="21" viewBox="0 0 21 21" fill="none" xmlns="http://www.w3.org/2000/svg">
<g clip-path="url(#clip0_175_1248)">
<path d="M20.3333 10.0833C20.3333 4.5604 15.8561 0.083252 10.3333 0.083252C4.8104 0.083252 0.333252 4.5604 0.333252 10.0833C0.333252 15.0745 3.99009 19.2116 8.77075 19.9618V12.9739H6.23169V10.0833H8.77075V7.88013C8.77075 5.37388 10.2637 3.9895 12.5479 3.9895C13.6417 3.9895 14.7864 4.18481 14.7864 4.18481V6.64575H13.5254C12.2833 6.64575 11.8958 7.41665 11.8958 8.20825V10.0833H14.6692L14.2258 12.9739H11.8958V19.9618C16.6764 19.2116 20.3333 15.0745 20.3333 10.0833Z" fill="#FFFEFF"/>
</g>
<defs>
<clipPath id="clip0_175_1248">
<rect width="20" height="20" fill="white" transform="translate(0.333252 0.083252)"/>
</clipPath>
</defs>
</svg>
