<svg width="22" height="22" viewBox="0 0 22 22" fill="none" xmlns="http://www.w3.org/2000/svg">
<path d="M11.9875 0.666626C13.1593 0.669751 13.7541 0.676001 14.2676 0.690584L14.4697 0.697875C14.703 0.706208 14.9332 0.716625 15.2113 0.729124C16.3196 0.781207 17.0758 0.956203 17.7393 1.21349C18.4268 1.47807 19.0059 1.83639 19.585 2.4145C20.1147 2.93521 20.5245 3.56509 20.786 4.26029C21.0433 4.92382 21.2183 5.68005 21.2704 6.7894C21.2829 7.06648 21.2933 7.29668 21.3016 7.53105L21.3079 7.73313C21.3235 8.24562 21.3297 8.84039 21.3318 10.0122L21.3329 10.7893V12.1539C21.3354 12.9136 21.3274 13.6734 21.3089 14.433L21.3027 14.635C21.2943 14.8694 21.2839 15.0996 21.2714 15.3767C21.2193 16.486 21.0423 17.2412 20.786 17.9058C20.5253 18.6014 20.1153 19.2314 19.585 19.7516C19.0642 20.2811 18.4344 20.6909 17.7393 20.9526C17.0758 21.2099 16.3196 21.3849 15.2113 21.437C14.9641 21.4486 14.7169 21.459 14.4697 21.4682L14.2676 21.4745C13.7541 21.4891 13.1593 21.4963 11.9875 21.4984L11.2105 21.4995H9.847C9.08689 21.5021 8.32679 21.4941 7.56691 21.4755L7.36483 21.4693C7.11756 21.4599 6.87035 21.4491 6.6232 21.437C5.51493 21.3849 4.75872 21.2099 4.09417 20.9526C3.39907 20.6915 2.76946 20.2816 2.24947 19.7516C1.71934 19.2311 1.30913 18.6012 1.04745 17.9058C0.79017 17.2423 0.615178 16.486 0.563098 15.3767C0.551493 15.1295 0.541077 14.8823 0.531849 14.635L0.526641 14.433C0.507447 13.6734 0.498766 12.9136 0.500601 12.1539V10.0122C0.497694 9.25247 0.505333 8.49269 0.523517 7.73313L0.530808 7.53105C0.539141 7.29668 0.549557 7.06648 0.562056 6.7894C0.614137 5.68005 0.789128 4.92486 1.04641 4.26029C1.30797 3.56438 1.719 2.93431 2.25051 2.4145C2.77037 1.8848 3.39956 1.47493 4.09417 1.21349C4.75872 0.956203 5.51389 0.781207 6.6232 0.729124C6.90027 0.716625 7.13151 0.706208 7.36483 0.697875L7.56691 0.691625C8.32644 0.673118 9.0862 0.665132 9.84595 0.667668L11.9875 0.666626ZM10.9167 5.87484C9.53547 5.87484 8.21078 6.42356 7.23407 7.40029C6.25737 8.37702 5.70867 9.70175 5.70867 11.083C5.70867 12.4644 6.25737 13.7891 7.23407 14.7658C8.21078 15.7425 9.53547 16.2913 10.9167 16.2913C12.298 16.2913 13.6227 15.7425 14.5994 14.7658C15.5761 13.7891 16.1248 12.4644 16.1248 11.083C16.1248 9.70175 15.5761 8.37702 14.5994 7.40029C13.6227 6.42356 12.298 5.87484 10.9167 5.87484ZM10.9167 7.95812C11.3271 7.95805 11.7334 8.03882 12.1126 8.19579C12.4917 8.35277 12.8363 8.5829 13.1265 8.87302C13.4167 9.16315 13.6469 9.5076 13.804 9.88671C13.9611 10.2658 14.042 10.6722 14.0421 11.0825C14.0422 11.4929 13.9614 11.8993 13.8044 12.2784C13.6475 12.6576 13.4173 13.0021 13.1272 13.2923C12.8371 13.5826 12.4927 13.8128 12.1136 13.9699C11.7345 14.127 11.3281 14.2079 10.9178 14.208C10.089 14.208 9.2942 13.8787 8.70818 13.2927C8.12216 12.7067 7.79294 11.9118 7.79294 11.083C7.79294 10.2543 8.12216 9.45943 8.70818 8.87339C9.2942 8.28735 10.089 7.95812 10.9178 7.95812M16.3862 4.31237C16.0409 4.31237 15.7098 4.44955 15.4656 4.69374C15.2214 4.93792 15.0842 5.2691 15.0842 5.61443C15.0842 5.95975 15.2214 6.29094 15.4656 6.53512C15.7098 6.7793 16.0409 6.91648 16.3862 6.91648C16.7316 6.91648 17.0627 6.7793 17.3069 6.53512C17.5511 6.29094 17.6883 5.95975 17.6883 5.61443C17.6883 5.2691 17.5511 4.93792 17.3069 4.69374C17.0627 4.44955 16.7316 4.31237 16.3862 4.31237Z" fill="#FFFEFF"/>
</svg>
