<svg width="21" height="21" viewBox="0 0 21 21" fill="none" xmlns="http://www.w3.org/2000/svg">
<g clip-path="url(#clip0_175_1244)">
<path d="M19.0195 0.083252H1.97656C1.16016 0.083252 0.5 0.727783 0.5 1.52466V18.6379C0.5 19.4348 1.16016 20.0833 1.97656 20.0833H19.0195C19.8359 20.0833 20.5 19.4348 20.5 18.6418V1.52466C20.5 0.727783 19.8359 0.083252 19.0195 0.083252ZM6.43359 17.1262H3.46484V7.57934H6.43359V17.1262ZM4.94922 6.27856C3.99609 6.27856 3.22656 5.50903 3.22656 4.55981C3.22656 3.6106 3.99609 2.84106 4.94922 2.84106C5.89844 2.84106 6.66797 3.6106 6.66797 4.55981C6.66797 5.50513 5.89844 6.27856 4.94922 6.27856ZM17.543 17.1262H14.5781V12.4856C14.5781 11.3801 14.5586 9.95434 13.0352 9.95434C11.4922 9.95434 11.2578 11.1614 11.2578 12.4075V17.1262H8.29688V7.57934H11.1406V8.88403H11.1797C11.5742 8.13403 12.543 7.34106 13.9844 7.34106C16.9883 7.34106 17.543 9.31763 17.543 11.8879V17.1262Z" fill="#FFFEFF"/>
</g>
<defs>
<clipPath id="clip0_175_1244">
<rect width="20" height="20" fill="white" transform="translate(0.5 0.083252)"/>
</clipPath>
</defs>
</svg>
