<svg width="32" height="32" viewBox="0 0 32 32" fill="none" xmlns="http://www.w3.org/2000/svg">
<g clip-path="url(#clip0_237_4231)">
<path d="M4.08203 9L6.01403 29.284C6.0816 30.0282 6.42578 30.7201 6.97861 31.2229C7.53144 31.7258 8.25273 32.0031 9.00003 32H23C23.7473 32.0031 24.4686 31.7258 25.0215 31.2229C25.5743 30.7201 25.9185 30.0282 25.986 29.284L27.918 9H4.08203Z" fill="#143881"/>
<path d="M30 5H22V2C22 1.46957 21.7893 0.960859 21.4142 0.585786C21.0391 0.210714 20.5304 0 20 0L12 0C11.4696 0 10.9609 0.210714 10.5858 0.585786C10.2107 0.960859 10 1.46957 10 2V5H2C1.73478 5 1.48043 5.10536 1.29289 5.29289C1.10536 5.48043 1 5.73478 1 6C1 6.26522 1.10536 6.51957 1.29289 6.70711C1.48043 6.89464 1.73478 7 2 7H30C30.2652 7 30.5196 6.89464 30.7071 6.70711C30.8946 6.51957 31 6.26522 31 6C31 5.73478 30.8946 5.48043 30.7071 5.29289C30.5196 5.10536 30.2652 5 30 5ZM12 2H20V5H12V2Z" fill="#143881"/>
</g>
<defs>
<clipPath id="clip0_237_4231">
<rect width="32" height="32" fill="white"/>
</clipPath>
</defs>
</svg>
