<svg width="41" height="44" viewBox="0 0 41 44" fill="none" xmlns="http://www.w3.org/2000/svg">
<g clip-path="url(#clip0_75_2136)">
<path d="M5.61328 12.375L8.26978 40.2655C8.36269 41.2888 8.83594 42.2402 9.59608 42.9316C10.3562 43.623 11.348 44.0042 12.3755 44H31.6255C32.6531 44.0042 33.6448 43.623 34.405 42.9316C35.1651 42.2402 35.6384 41.2888 35.7313 40.2655L38.3878 12.375H5.61328Z" fill="#27AAE1"/>
<path d="M41.25 6.875H30.25V2.75C30.25 2.02065 29.9603 1.32118 29.4445 0.805456C28.9288 0.289731 28.2293 0 27.5 0L16.5 0C15.7707 0 15.0712 0.289731 14.5555 0.805456C14.0397 1.32118 13.75 2.02065 13.75 2.75V6.875H2.75C2.38533 6.875 2.03559 7.01987 1.77773 7.27773C1.51987 7.53559 1.375 7.88533 1.375 8.25C1.375 8.61467 1.51987 8.96441 1.77773 9.22227C2.03559 9.48013 2.38533 9.625 2.75 9.625H41.25C41.6147 9.625 41.9644 9.48013 42.2223 9.22227C42.4801 8.96441 42.625 8.61467 42.625 8.25C42.625 7.88533 42.4801 7.53559 42.2223 7.27773C41.9644 7.01987 41.6147 6.875 41.25 6.875ZM16.5 2.75H27.5V6.875H16.5V2.75Z" fill="#27AAE1"/>
</g>
<defs>
<clipPath id="clip0_75_2136">
<rect width="44" height="44" fill="white"/>
</clipPath>
</defs>
</svg>
