<svg width="21" height="21" viewBox="0 0 21 21" fill="none" xmlns="http://www.w3.org/2000/svg">
<g clip-path="url(#clip0_175_1242)">
<path d="M6.7918 18.2082C14.3371 18.2082 18.4652 11.9555 18.4652 6.5348C18.4652 6.35902 18.4613 6.17933 18.4535 6.00355C19.2566 5.4228 19.9496 4.70346 20.5 3.87933C19.7521 4.21209 18.958 4.4294 18.1449 4.52386C19.0011 4.01068 19.6421 3.20448 19.9492 2.25472C19.1438 2.73205 18.263 3.06876 17.3445 3.25043C16.7257 2.59289 15.9075 2.15752 15.0164 2.01163C14.1253 1.86574 13.211 2.01746 12.4148 2.44333C11.6186 2.8692 10.9848 3.54551 10.6115 4.36768C10.2382 5.18985 10.1462 6.1121 10.3496 6.99183C8.71874 6.90999 7.12328 6.48634 5.66665 5.74833C4.21002 5.01033 2.92474 3.97445 1.89414 2.70785C1.37033 3.61095 1.21005 4.67962 1.44586 5.69666C1.68167 6.7137 2.29589 7.60279 3.16367 8.18324C2.51219 8.16256 1.87498 7.98715 1.30469 7.67152V7.7223C1.3041 8.67004 1.63175 9.58874 2.23192 10.3222C2.8321 11.0557 3.66777 11.5587 4.59687 11.7457C3.99338 11.9109 3.35999 11.9349 2.7457 11.8161C3.00788 12.6311 3.51798 13.344 4.20481 13.8552C4.89164 14.3664 5.72093 14.6504 6.57695 14.6676C5.12369 15.8092 3.32848 16.4284 1.48047 16.4254C1.15274 16.4249 0.825333 16.4048 0.5 16.3653C2.37738 17.5697 4.56128 18.2094 6.7918 18.2082Z" fill="#FFFEFF"/>
</g>
<defs>
<clipPath id="clip0_175_1242">
<rect width="20" height="20" fill="white" transform="translate(0.5 0.083252)"/>
</clipPath>
</defs>
</svg>
