<svg width="41" height="44" viewBox="0 0 41 44" fill="none" xmlns="http://www.w3.org/2000/svg">
<path d="M37.584 18.6817H32.2857C27.9407 18.6817 24.4023 15.1434 24.4023 10.7984V5.50002C24.4023 4.49169 23.5773 3.66669 22.569 3.66669H14.7957C9.14898 3.66669 4.58398 7.33335 4.58398 13.8784V30.1217C4.58398 36.6667 9.14898 40.3334 14.7957 40.3334H29.2057C34.8523 40.3334 39.4173 36.6667 39.4173 30.1217V20.515C39.4173 19.5067 38.5923 18.6817 37.584 18.6817ZM21.139 24.805C20.864 25.08 20.5157 25.2084 20.1673 25.2084C19.819 25.2084 19.4707 25.08 19.1957 24.805L17.8757 23.485V31.1667C17.8757 31.9184 17.2523 32.5417 16.5007 32.5417C15.749 32.5417 15.1257 31.9184 15.1257 31.1667V23.485L13.8057 24.805C13.274 25.3367 12.394 25.3367 11.8623 24.805C11.3307 24.2734 11.3307 23.3934 11.8623 22.8617L15.529 19.195C15.6573 19.085 15.7857 18.9934 15.9323 18.92C15.969 18.9017 16.024 18.8834 16.0607 18.865C16.1707 18.8284 16.2807 18.81 16.409 18.7917C16.464 18.7917 16.5007 18.7917 16.5557 18.7917C16.7023 18.7917 16.849 18.8284 16.9957 18.8834C17.014 18.8834 17.014 18.8834 17.0323 18.8834C17.179 18.9384 17.3257 19.0484 17.4357 19.1584C17.454 19.1767 17.4723 19.1767 17.4723 19.195L21.139 22.8617C21.6707 23.3934 21.6707 24.2734 21.139 24.805Z" fill="#27AAE1"/>
<path d="M31.9557 16.1517C33.6974 16.17 36.1174 16.17 38.1891 16.17C39.2341 16.17 39.7841 14.9417 39.0507 14.2084C36.4107 11.55 31.6807 6.76503 28.9674 4.05169C28.2157 3.30003 26.9141 3.81336 26.9141 4.85836V11.2567C26.9141 13.9334 29.1874 16.1517 31.9557 16.1517Z" fill="#27AAE1"/>
</svg>
